HIERARCHY
ROOT joint_Root
{
	OFFSET 0.0 0.0 0.0
	CHANNELS 6 Xposition Yposition Zposition Zrotation Xrotation Yrotation 
	JOINT Hips
	{
		OFFSET -0.726466 93.3139 -2.00062
		CHANNELS 6 Xposition Yposition Zposition Zrotation Xrotation Yrotation 
		JOINT Spine
		{
			OFFSET 15.7357 0.0 0.0
			CHANNELS 6 Xposition Yposition Zposition Zrotation Xrotation Yrotation 
			JOINT Chest
			{
				OFFSET 8.98455 -0.406207 0.0
				CHANNELS 6 Xposition Yposition Zposition Zrotation Xrotation Yrotation 
				JOINT Neck
				{
					OFFSET 16.3773 0.0 0.0
					CHANNELS 6 Xposition Yposition Zposition Zrotation Xrotation Yrotation 
					JOINT Head
					{
						OFFSET 6.45672 0.0 0.0
						CHANNELS 6 Xposition Yposition Zposition Zrotation Xrotation Yrotation 
						End Site
						{
							OFFSET 0.0 0.0 0.0
						}
					}
				}
				JOINT Shoulder_L
				{
					OFFSET 12.9942 -0.242716 4.98039
					CHANNELS 6 Xposition Yposition Zposition Zrotation Xrotation Yrotation 
					JOINT UpperArm_L
					{
						OFFSET 5.34809 0.0 0.0
						CHANNELS 6 Xposition Yposition Zposition Zrotation Xrotation Yrotation 
						JOINT LowerArm_L
						{
							OFFSET 24.3286 1.87007e-05 0.0
							CHANNELS 6 Xposition Yposition Zposition Zrotation Xrotation Yrotation 
							JOINT Hand_L
							{
								OFFSET 22.2916 0.0 0.0
								CHANNELS 6 Xposition Yposition Zposition Zrotation Xrotation Yrotation 
								End Site
								{
									OFFSET 0.0 0.0 0.0
								}
							}
						}
					}
				}
				JOINT Shoulder_R
				{
					OFFSET 12.9945 -0.242716 -4.98039
					CHANNELS 6 Xposition Yposition Zposition Zrotation Xrotation Yrotation 
					JOINT UpperArm_R
					{
						OFFSET -5.34813 0.0 0.0
						CHANNELS 6 Xposition Yposition Zposition Zrotation Xrotation Yrotation 
						JOINT LowerArm_R
						{
							OFFSET -24.3289 0.000322201 0.0
							CHANNELS 6 Xposition Yposition Zposition Zrotation Xrotation Yrotation 
							JOINT Hand_R
							{
								OFFSET -22.2915 -0.000108084 0.0
								CHANNELS 6 Xposition Yposition Zposition Zrotation Xrotation Yrotation 
								End Site
								{
									OFFSET 0.0 0.0 0.0
								}
							}
						}
					}
				}
			}
		}
		JOINT UpperLeg_L
		{
			OFFSET -2.19248 -6.46944 0.0
			CHANNELS 6 Xposition Yposition Zposition Zrotation Xrotation Yrotation 
			JOINT LowerLeg_L
			{
				OFFSET 39.0811 0.0 -1.23785e-05
				CHANNELS 6 Xposition Yposition Zposition Zrotation Xrotation Yrotation 
				JOINT Foot_L
				{
					OFFSET 40.9854 0.0 -1.26872e-05
					CHANNELS 6 Xposition Yposition Zposition Zrotation Xrotation Yrotation 
					JOINT Toes_L
					{
						OFFSET 11.7543 0.0 0.0
						CHANNELS 6 Xposition Yposition Zposition Zrotation Xrotation Yrotation 
						End Site
						{
							OFFSET 0.0 0.0 0.0
						}
					}
				}
			}
		}
		JOINT UpperLeg_R
		{
			OFFSET -2.19251 6.46944 0.0
			CHANNELS 6 Xposition Yposition Zposition Zrotation Xrotation Yrotation 
			JOINT LowerLeg_R
			{
				OFFSET -39.0811 -0.00228153 -0.0401928
				CHANNELS 6 Xposition Yposition Zposition Zrotation Xrotation Yrotation 
				JOINT Foot_R
				{
					OFFSET -40.9854 0.0 0.0
					CHANNELS 6 Xposition Yposition Zposition Zrotation Xrotation Yrotation 
					JOINT Toes_R
					{
						OFFSET -11.7543 0.0 0.0
						CHANNELS 6 Xposition Yposition Zposition Zrotation Xrotation Yrotation 
						End Site
						{
							OFFSET 0.0 0.0 0.0
						}
					}
				}
			}
		}
	}
}
MOTION
Frames:	5
Frame Time:	0.0333333
0.000000 0.000000 0.000000 0.000000 0.000000 -0.000000 -191.121000 88.557700 193.034000 1.091240 86.524900 90.030700 15.735700 0.000005 -0.000001 69.918900 82.830900 -68.348200 8.984550 -0.406207 -0.000000 5.786940 -4.937820 3.389170 16.377300 -0.000001 -0.000001 3.759670 0.480442 -1.370080 6.456720 -0.000001 -0.000000 4.162350 3.325770 -1.408990 12.994200 -0.242716 4.980390 -89.297100 -2.195170 -72.239000 5.348090 -0.000007 -0.000001 -54.055900 29.856500 -44.646800 24.328600 0.000019 0.000005 -1.914190 -1.912070 -45.048600 22.291600 -0.000001 0.000005 15.478300 5.579770 -10.199400 12.994500 -0.242716 -4.980390 88.638400 3.977430 -71.085300 -5.348130 -0.000001 -0.000004 -71.745400 20.424500 -3.259410 -24.328900 0.000322 -0.000009 0.546800 15.970600 -1.990340 -22.291500 -0.000108 -0.000004 10.964100 5.273460 0.804320 -2.192480 -6.469440 -0.000000 -174.821000 0.989893 9.714240 39.081100 -0.000007 -0.000012 0.007891 -0.017409 24.382500 40.985400 -0.000006 -0.000013 8.041000 9.611600 -76.300400 11.754300 -0.000000 0.000003 -1.500370 -1.716740 -24.378400 -2.192510 6.469440 -0.000001 -172.472000 18.317000 151.305000 -39.081100 -0.002282 -0.040193 -0.027028 0.097334 17.320500 -40.985400 0.000008 0.000006 0.007905 -1.457200 -53.638100 -11.754300 -0.000006 -0.000006 -0.022798 -0.182320 -24.027700
0.000000 0.000000 0.000000 0.000000 0.000000 -0.000000 -186.940000 88.292500 194.365000 -2.647580 85.276400 93.431000 15.735700 0.000005 -0.000001 68.061700 83.118400 -65.910000 8.984550 -0.406207 -0.000000 5.118150 -5.181140 4.532560 16.377300 -0.000001 -0.000001 4.149910 0.550234 -1.439330 6.456720 -0.000001 -0.000000 4.394880 3.748790 -1.408960 12.994200 -0.242716 4.980390 -89.355500 -2.031110 -72.390400 5.348090 -0.000007 -0.000001 -54.969300 29.796000 -42.729200 24.328600 0.000019 0.000005 -1.852010 -1.858850 -44.910000 22.291600 -0.000001 0.000005 15.623600 5.575100 -9.951860 12.994500 -0.242716 -4.980390 88.395900 4.557420 -70.586200 -5.348130 -0.000001 -0.000004 -70.410700 19.929200 -3.427250 -24.328900 0.000322 -0.000009 0.893024 15.845200 -3.271490 -22.291500 -0.000108 -0.000004 11.407000 5.272300 0.835999 -2.192480 -6.469440 -0.000000 -172.336000 0.850060 10.311600 39.081100 -0.000007 -0.000012 0.002845 -0.005613 26.873200 40.985400 -0.000006 -0.000013 7.107710 11.258700 -72.971200 11.754300 -0.000000 0.000003 -0.597246 -0.729804 -27.414000 -2.192510 6.469440 -0.000001 -170.748000 16.917700 150.235000 -39.081100 -0.002282 -0.040193 0.046823 -0.105789 22.355100 -40.985400 0.000008 0.000006 5.359290 -0.708467 -50.525900 -11.754300 -0.000006 -0.000006 -0.025437 -0.195734 -24.581900
0.000000 0.000000 0.000000 0.000000 0.000000 -0.000000 -182.351000 88.182000 195.733000 -2.983870 83.797300 93.798300 15.735700 0.000005 -0.000001 66.632700 83.392400 -63.818400 8.984550 -0.406207 -0.000000 4.517970 -5.312290 5.835150 16.377300 -0.000001 -0.000001 4.430780 0.537533 -1.598540 6.456720 -0.000001 -0.000000 4.690970 4.135980 -1.529460 12.994200 -0.242716 4.980390 -89.563400 -1.375590 -72.390000 5.348090 -0.000007 -0.000001 -55.728000 30.559400 -39.524000 24.328600 0.000019 0.000005 -1.836510 -1.865190 -44.571500 22.291600 -0.000001 0.000005 15.313700 5.574760 -9.934800 12.994500 -0.242716 -4.980390 88.143300 5.150810 -70.146600 -5.348130 -0.000001 -0.000004 -69.275400 19.424900 -3.497730 -24.328900 0.000322 -0.000009 1.286010 14.679100 -5.067910 -22.291500 -0.000108 -0.000004 11.718300 5.290270 0.343609 -2.192480 -6.469440 -0.000000 -169.629000 0.613401 10.479300 39.081100 -0.000007 -0.000012 0.005944 -0.009951 30.848400 40.985400 -0.000006 -0.000013 6.305170 12.761600 -68.316400 11.754300 -0.000000 0.000003 -0.105472 -0.457945 -35.717800 -2.192510 6.469440 -0.000001 -170.784000 11.957400 151.089000 -39.081100 -0.002282 -0.040193 0.037535 -0.069847 26.105400 -40.985400 0.000008 0.000006 4.151840 -3.682140 -47.397900 -11.754300 -0.000006 -0.000006 -0.022429 -0.180391 -23.948100
0.000000 0.000000 0.000000 0.000000 0.000000 -0.000000 -177.619000 88.204300 196.906000 2.103520 83.226100 90.142900 15.735700 0.000005 -0.000001 67.769900 83.238700 -64.625100 8.984550 -0.406207 -0.000000 4.917740 -5.184110 6.508700 16.377300 -0.000001 -0.000001 4.348540 0.659818 -1.673030 6.456720 -0.000001 -0.000000 4.866820 4.468270 -1.958900 12.994200 -0.242716 4.980390 -89.728600 -0.846424 -72.217900 5.348090 -0.000007 -0.000001 -57.091600 31.771800 -35.452200 24.328600 0.000019 0.000005 -1.573160 -1.654310 -43.570300 22.291600 -0.000001 0.000005 14.784200 5.576870 -10.045500 12.994500 -0.242716 -4.980390 88.062300 5.327380 -69.978900 -5.348130 -0.000001 -0.000004 -68.710500 19.501800 -4.339420 -24.328900 0.000322 -0.000009 1.489040 12.954500 -6.619830 -22.291500 -0.000108 -0.000004 11.577800 5.311050 -0.240677 -2.192480 -6.469440 -0.000000 -168.481000 0.358976 9.742680 39.081100 -0.000007 -0.000012 0.019526 -0.025108 37.868100 40.985400 -0.000006 -0.000013 5.339090 12.877000 -59.763400 11.754300 -0.000000 0.000003 -0.186094 -0.621502 -43.115900 -2.192510 6.469440 -0.000001 -170.956000 9.386460 153.011000 -39.081100 -0.002282 -0.040193 -0.004202 0.011897 32.225700 -40.985400 0.000008 0.000006 3.089960 -6.010660 -53.721400 -11.754300 -0.000006 -0.000006 -0.015110 -0.138507 -22.224300
0.000000 0.000000 0.000000 0.000000 0.000000 -0.000000 -173.306000 88.426700 197.918000 8.695270 82.764700 85.582600 15.735700 0.000005 -0.000001 70.697300 82.728100 -67.312500 8.984550 -0.406207 -0.000000 6.129500 -4.842670 7.024800 16.377300 -0.000001 -0.000001 3.968310 0.862333 -1.568460 6.456720 -0.000001 -0.000000 4.602790 4.727160 -2.347660 12.994200 -0.242716 4.980390 -89.762800 -0.739642 -72.217800 5.348090 -0.000007 -0.000001 -59.675000 32.724600 -31.203100 24.328600 0.000019 0.000005 -1.235940 -1.417800 -41.081900 22.291600 -0.000001 0.000005 13.953700 5.573530 -9.867570 12.994500 -0.242716 -4.980390 88.097600 5.308660 -70.251900 -5.348130 -0.000001 -0.000004 -68.384100 20.096400 -6.452130 -24.328900 0.000322 -0.000009 1.570830 11.555500 -7.800730 -22.291500 -0.000108 -0.000004 10.996600 5.322440 -0.566320 -2.192480 -6.469440 -0.000000 -168.312000 0.905365 6.953330 39.081100 -0.000007 -0.000012 0.020587 -0.018922 47.408800 40.985400 -0.000006 -0.000013 3.580890 11.281900 -49.049600 11.754300 -0.000000 0.000003 -0.121272 -0.494547 -37.334100 -2.192510 6.469440 -0.000001 -170.417000 10.250000 156.891000 -39.081100 -0.002282 -0.040193 -0.013726 0.024327 34.972800 -40.985400 0.000008 0.000006 4.102090 -5.131060 -58.337600 -11.754300 -0.000006 -0.000006 -0.012301 -0.120091 -21.469100
